<?xml version="1.0" encoding="UTF-8"?>
<svg xmlns="http://www.w3.org/2000/svg" version="1.1" xmlns:xlink="http://www.w3.org/1999/xlink" viewBox="0 0 384 384">
  <defs>
    <style>
      .cls-1 {
        fill: url(#_무제_그라디언트_187);
      }

      .cls-2 {
        fill: url(#_무제_그라디언트_187-3);
      }

      .cls-3 {
        fill: url(#_무제_그라디언트_187-2);
      }
    </style>
    <linearGradient id="_무제_그라디언트_187" data-name="무제 그라디언트 187" x1="-72.32" y1="-115.88" x2="463.27" y2="419.71" gradientUnits="userSpaceOnUse">
      <stop offset="0" stop-color="#fff"/>
      <stop offset="1" stop-color="#231815"/>
    </linearGradient>
    <linearGradient id="_무제_그라디언트_187-2" data-name="무제 그라디언트 187" x1="-77.79" y1="-103.46" x2="452.1" y2="426.44" xlink:href="#_무제_그라디언트_187"/>
    <linearGradient id="_무제_그라디언트_187-3" data-name="무제 그라디언트 187" x1="-41.84" y1="-163.51" x2="503.19" y2="381.52" xlink:href="#_무제_그라디언트_187"/>
  </defs>
  <!-- Generator: Adobe Illustrator 28.7.1, SVG Export Plug-In . SVG Version: 1.2.0 Build 142)  -->
  <g>
    <g id="_레이어_1" data-name="레이어_1">
      <polygon class="cls-1" points="138.4 288.71 138.4 201.41 192.01 175.7 245.61 201.41 245.61 288.71 283.52 270.52 283.52 183.02 231.26 157.57 283.52 131.78 283.52 26.36 245.61 39.59 245.61 112.89 138.4 164.32 138.39 39.58 100.48 26.37 100.48 270.52 138.4 288.71"/>
      <g>
        <path class="cls-3" d="M384,50.63l-64.62-2.62v234.87l-112.95,54.15c3.4-39.66,7.16-77.9,8.53-112.68l-46.6-22.36c.88,41.38,5.08,86.79,9.22,135.04l-112.95-54.15V48.01L0,50.63c40.27,42.22,42.08,130.08,20.13,251.55,99.72,18.95,171.87,81.83,171.87,81.83,0,0,72.14-62.88,171.87-81.83-21.96-121.46-20.14-209.32,20.12-251.55Z"/>
        <path class="cls-2" d="M211.78,99.18c-3.64-33.18-9.92-65.83-19.77-99.18-11.81,39.98-18.49,78.95-21.63,119.04l41.41-19.86Z"/>
      </g>
    </g>
  </g>
</svg>